<mxfile host="app.diagrams.net" modified="2023-11-30T04:10:41.205Z" agent="Mozilla/5.0 (X11; Linux x86_64) AppleWebKit/537.36 (KHTML, like Gecko) Chrome/118.0.0.0 Safari/537.36" version="21.6.5" etag="0tVqHLb2GqzQjlSZVYJy" type="github">
  <diagram name="第 1 页" id="Cqv0-gcXnQQgNyR5MquS">
    <mxGraphModel>
      <root>
        <mxCell id="0" />
        <mxCell id="1" parent="0" />
      </root>
    </mxGraphModel>
  </diagram>
</mxfile>
